<svg xmlns="http://www.w3.org/2000/svg" viewBox="0 0 1000 340" font-family="Pretendard, -apple-system, sans-serif">
  <defs>
    <marker id="arrow2" viewBox="0 0 10 10" refX="9" refY="5" markerWidth="7" markerHeight="7" orient="auto-start-reverse">
      <path d="M0,0 L10,5 L0,10 z" fill="#4a4f57"/>
    </marker>
  </defs>
  <rect width="1000" height="340" fill="#ffffff"/>

  <g font-size="13" fill="#1a1a1e">
    <rect x="20" y="42" width="160" height="72" rx="10" fill="#f6f7f9" stroke="#c7cbd1"/>
    <text x="100" y="72" text-anchor="middle" font-weight="700">10+ 위성 소스</text>
    <text x="100" y="90" text-anchor="middle" font-size="11" fill="#4a4f57">다누리·Sentinel·Landsat 등</text>

    <line x1="180" y1="78" x2="218" y2="78" stroke="#4a4f57" stroke-width="1.5" marker-end="url(#arrow2)"/>

    <rect x="220" y="30" width="180" height="96" rx="10" fill="#eaf0ff" stroke="#3366ff"/>
    <text x="310" y="58" text-anchor="middle" font-weight="700" fill="#3366ff">워크플로우 엔진</text>
    <text x="310" y="78" text-anchor="middle" font-size="11" fill="#4a4f57">소스 추상화 계층</text>
    <text x="310" y="96" text-anchor="middle" font-size="10.5" fill="#8b9099">신규 소스 추가 코드 수정 0건</text>

    <line x1="400" y1="78" x2="438" y2="78" stroke="#4a4f57" stroke-width="1.5" marker-end="url(#arrow2)"/>

    <rect x="440" y="30" width="200" height="96" rx="10" fill="#f6f7f9" stroke="#c7cbd1"/>
    <text x="540" y="55" text-anchor="middle" font-weight="700">AI 추론 (K8s)</text>
    <text x="540" y="75" text-anchor="middle" font-size="11" fill="#4a4f57">YOLOv11 OBB/HBB · UPerNet Seg</text>
    <text x="540" y="93" text-anchor="middle" font-size="10.5" fill="#8b9099">Aliyun GPUShare · GPU 4장 70파드</text>
    <text x="540" y="110" text-anchor="middle" font-size="10.5" fill="#8b9099">일 처리량 200건 → 3,000건</text>

    <line x1="640" y1="78" x2="678" y2="78" stroke="#4a4f57" stroke-width="1.5" marker-end="url(#arrow2)"/>

    <rect x="680" y="30" width="150" height="96" rx="10" fill="#f6f7f9" stroke="#c7cbd1"/>
    <text x="755" y="58" text-anchor="middle" font-weight="700">Outbox + CDC</text>
    <text x="755" y="78" text-anchor="middle" font-size="11" fill="#4a4f57">Debezium 자가치유</text>
    <text x="755" y="96" text-anchor="middle" font-size="10.5" fill="#8b9099">멱등키 설계</text>
    <text x="755" y="112" text-anchor="middle" font-size="10.5" fill="#8b9099">이벤트 유실 0건</text>

    <line x1="830" y1="78" x2="868" y2="78" stroke="#4a4f57" stroke-width="1.5" marker-end="url(#arrow2)"/>

    <rect x="870" y="42" width="110" height="72" rx="10" fill="#f6f7f9" stroke="#c7cbd1"/>
    <text x="925" y="72" text-anchor="middle" font-weight="700">PostgreSQL</text>
    <text x="925" y="90" text-anchor="middle" font-size="10.5" fill="#4a4f57">무외래키 스키마</text>
  </g>

  <!-- viewer branch -->
  <g font-size="12" fill="#1a1a1e">
    <line x1="540" y1="126" x2="540" y2="160" stroke="#4a4f57" stroke-width="1.5" marker-end="url(#arrow2)"/>
    <rect x="440" y="162" width="200" height="56" rx="10" fill="#f6f7f9" stroke="#c7cbd1"/>
    <text x="540" y="186" text-anchor="middle" font-weight="700">Nginx 게이트웨이</text>
    <text x="540" y="204" text-anchor="middle" font-size="10.5" fill="#4a4f57">HTTPS 종단 통합 · 정보노출 점검</text>

    <line x1="540" y1="218" x2="540" y2="252" stroke="#4a4f57" stroke-width="1.5" marker-end="url(#arrow2)"/>
    <rect x="420" y="254" width="240" height="56" rx="10" fill="#eaf0ff" stroke="#3366ff"/>
    <text x="540" y="278" text-anchor="middle" font-weight="700" fill="#3366ff">CesiumJS 3D 뷰어</text>
    <text x="540" y="296" text-anchor="middle" font-size="10.5" fill="#4a4f57">판독·보고서(HWP) 산출</text>
  </g>

  <!-- SaltStack side note -->
  <g font-size="12" fill="#1a1a1e">
    <rect x="20" y="180" width="300" height="72" rx="10" fill="#f6f7f9" stroke="#e0e2e6"/>
    <text x="170" y="204" text-anchor="middle" font-weight="700">SaltStack Minion</text>
    <text x="170" y="223" text-anchor="middle" font-size="10.5" fill="#4a4f57">노드 메모리 실시간 점검</text>
    <text x="170" y="240" text-anchor="middle" font-size="10.5" fill="#4a4f57">메모리 50% 미만 노드에만 워크로드 할당</text>
  </g>
</svg>
