<svg xmlns="http://www.w3.org/2000/svg" xml:space="preserve" width="748.30615" height="385.16702" viewBox="0 0 748.30615 385.16704"><defs><linearGradient id="b" x1="0" x2="1" y1="0" y2="0" gradientTransform="matrix(90.12459 8.13394 -8.13394 90.12457 300.384 -982.696)" gradientUnits="userSpaceOnUse" spreadMethod="pad"><stop offset="0" style="stop-opacity:1;stop-color:#154281"/><stop offset="0.15169" style="stop-opacity:1;stop-color:#154281"/><stop offset="0.51686" style="stop-opacity:1;stop-color:#127bca"/><stop offset="0.86517" style="stop-opacity:1;stop-color:#154281"/><stop offset="1" style="stop-opacity:1;stop-color:#154281"/></linearGradient><clipPath id="a" clipPathUnits="userSpaceOnUse"><path d="M368.28-1005.823c-7.471 0-14.76 3.077-20.472 8.027 0 0-8.606 6.757-10.856 18.518-.036.199-.076.395-.108.588-.03.204-.05.396-.08.598-1.25 5.935-6.96 10.712-12.961 10.712-6.204 0-10.494-5.099-9.512-11.303.983-6.204 6.887-11.3 13.09-11.3 3.255 0 5.972 1.405 7.683 3.636 2.777-7.699 8.146-12.517 10.117-14.092-3.987-3.374-9.266-5.384-15.298-5.384-14.899 0-29.073 12.239-31.43 27.133-2.364 14.898 7.94 27.136 22.837 27.136 7.47 0 14.755-3.073 20.467-8.025 8.913-6.982 10.877-18.644 10.877-18.644a11 11 0 0 0 .148-.919c1.195-5.992 6.942-10.84 12.99-10.84 6.202 0 10.496 5.095 9.51 11.3-.98 6.203-6.883 11.302-13.087 11.302-3.249 0-5.964-1.408-7.677-3.63-.989 2.838-3.798 9.27-10.11 14.089 3.985 3.365 9.253 5.367 15.275 5.367 14.897 0 29.072-12.238 31.432-27.136 2.359-14.894-7.94-27.133-22.836-27.133z"/></clipPath></defs><path d="M91.165 131.638h.727c18.685-22.36 38.274-29.944 63.893-29.944 49.762 0 64.626 31.388 57.421 76.822L195.1 292.838h-65.63l14.29-90.156c2.79-17.67 10.594-48.682-21.871-48.682-26.687 0-37.407 19.836-41.053 42.913l-15.187 95.925H0L29.307 107.83H94.95z" style="fill:#154281;fill-opacity:1;fill-rule:nonzero;stroke:none;stroke-width:3.64143"/><path d="M348.532 36.801c-3.193 20.19-22.413 36.776-42.6 36.776-20.203 0-34.165-16.586-30.965-36.776C278.175 16.585 297.393 0 317.582 0c20.204 0 34.15 16.587 30.95 36.801" style="fill:#d91920;fill-opacity:1;fill-rule:nonzero;stroke:none;stroke-width:3.64143"/><path d="M304.413 292.838h-65.63L268.08 107.83h65.624zm91.717 92.329h-65.621L374.26 107.83h65.642L396.13 385.167zm322.863-92.33h-65.627l29.299-185.007h65.641z" style="fill:#154281;fill-opacity:1;fill-rule:nonzero;stroke:none;stroke-width:3.64143"/><g clip-path="url(#a)" transform="translate(-708.43 3763.927)scale(3.64143)"><path d="M368.28-1005.823c-7.471 0-14.76 3.077-20.472 8.027 0 0-8.606 6.757-10.856 18.518-.036.199-.076.395-.108.588-.03.204-.05.396-.08.598-1.25 5.935-6.96 10.712-12.961 10.712-6.204 0-10.494-5.099-9.512-11.303.983-6.204 6.887-11.3 13.09-11.3 3.255 0 5.972 1.405 7.683 3.636 2.777-7.699 8.146-12.517 10.117-14.092-3.987-3.374-9.266-5.384-15.298-5.384-14.899 0-29.073 12.239-31.43 27.133-2.364 14.898 7.94 27.136 22.837 27.136 7.47 0 14.755-3.073 20.467-8.025 8.913-6.982 10.877-18.644 10.877-18.644a11 11 0 0 0 .148-.919c1.195-5.992 6.942-10.84 12.99-10.84 6.202 0 10.496 5.095 9.51 11.3-.98 6.203-6.883 11.302-13.087 11.302-3.249 0-5.964-1.408-7.677-3.63-.989 2.838-3.798 9.27-10.11 14.089 3.985 3.365 9.253 5.367 15.275 5.367 14.897 0 29.072-12.238 31.432-27.136 2.359-14.894-7.94-27.133-22.836-27.133z" style="fill:url(#b);stroke:none"/></g></svg>